<svg width="24" height="24" viewBox="0 0 24 24" fill="none" xmlns="http://www.w3.org/2000/svg">
<rect width="24" height="24" rx="3" fill="#161515"/>
<path d="M6.56177 14.4045L6.60548 14.528C6.59988 14.5138 6.58389 14.4706 6.56177 14.4045ZM8.29167 11.6077C8.36843 10.9445 8.62912 10.5732 9.12036 10.1926C9.82325 9.67705 10.7013 9.96865 10.7013 9.96865V8.23875C10.9147 8.23306 11.1283 8.24626 11.3394 8.2782V10.5044C11.3394 10.5044 10.4616 10.2128 9.75875 10.7286C9.26777 11.1089 9.00655 11.4805 8.93005 12.1437C8.92765 12.5038 8.99242 12.9745 9.29069 13.3815C9.21694 13.3421 9.14178 13.2971 9.06519 13.2467C8.40815 12.7863 8.28847 12.0957 8.29167 11.6077ZM14.9647 5.04017C14.4812 4.48735 14.2983 3.9292 14.2322 3.53711H14.8405C14.8405 3.53711 14.7192 4.56519 15.6031 5.5762L15.6153 5.5898C15.3771 5.43345 15.1587 5.24891 14.9647 5.04017ZM17.8949 6.60748V8.78891C17.8949 8.78891 17.1187 8.75719 16.5443 8.60472C15.7422 8.39149 15.2267 8.06443 15.2267 8.06443C15.2267 8.06443 14.8706 7.8312 14.8418 7.81494V12.3196C14.8418 12.5704 14.776 13.1968 14.5753 13.7193C14.3133 14.4027 13.9089 14.8513 13.8345 14.943C13.8345 14.943 13.3428 15.5494 12.4751 15.9577C11.6931 16.3261 11.0065 16.3168 10.8012 16.3261C10.8012 16.3261 9.61428 16.3751 8.54622 15.6509C8.31526 15.4913 8.09967 15.3105 7.90224 15.1109L7.90757 15.1149C8.97589 15.8391 10.1626 15.7901 10.1626 15.7901C10.3681 15.7807 11.0547 15.7901 11.8365 15.4217C12.7033 15.0133 13.1959 14.4069 13.1959 14.4069C13.2695 14.3153 13.6757 13.8667 13.9366 13.183C14.1368 12.6608 14.2032 12.0341 14.2032 11.7833V7.27918C14.232 7.29571 14.5878 7.52893 14.5878 7.52893C14.5878 7.52893 15.1036 7.85626 15.9056 8.06923C16.4803 8.22169 17.2562 8.25341 17.2562 8.25341V6.54404C17.5217 6.60615 17.748 6.62294 17.8949 6.60748Z" fill="#EE1D52"/>
<path d="M17.2566 6.54404V8.25288C17.2566 8.25288 16.4806 8.22116 15.906 8.0687C15.1039 7.85546 14.5882 7.5284 14.5882 7.5284C14.5882 7.5284 14.2323 7.29517 14.2035 7.27865V11.7838C14.2035 12.0347 14.1377 12.6613 13.937 13.1835C13.675 13.8672 13.2706 14.3158 13.1962 14.4075C13.1962 14.4075 12.7042 15.0139 11.8368 15.4222C11.0551 15.7906 10.3684 15.7813 10.1629 15.7906C10.1629 15.7906 8.97625 15.8396 7.90793 15.1154L7.90259 15.1114C7.7898 14.9975 7.68363 14.8772 7.5846 14.7511C7.24369 14.3174 7.03471 13.8045 6.9822 13.6582C6.98211 13.6576 6.98211 13.657 6.9822 13.6563C6.89771 13.4021 6.72019 12.7914 6.74444 12.1999C6.78736 11.1564 7.1392 10.5159 7.23223 10.3554C7.4786 9.91784 7.79903 9.52633 8.17927 9.19833C8.51481 8.91529 8.89513 8.69008 9.30464 8.53196C9.74733 8.3463 10.2214 8.24678 10.7014 8.23875V9.96865C10.7014 9.96865 9.82334 9.67811 9.12072 10.1926C8.62947 10.5732 8.36879 10.9445 8.29202 11.6077C8.28882 12.0957 8.4085 12.7863 9.06501 13.2469C9.1416 13.2976 9.21677 13.3425 9.29051 13.3818C9.4052 13.5374 9.5448 13.6729 9.70366 13.783C10.345 14.2065 10.8823 14.2361 11.5695 13.961C12.0277 13.7771 12.3726 13.3626 12.5325 12.9033C12.633 12.6165 12.6317 12.3279 12.6317 12.0293V3.53711H14.231C14.2971 3.9292 14.4799 4.48735 14.9635 5.04017C15.1574 5.24891 15.3759 5.43345 15.6141 5.5898C15.6845 5.66576 16.0443 6.04133 16.5062 6.27189C16.7451 6.39107 16.9969 6.48239 17.2566 6.54404Z" fill="white"/>
<path d="M6.3457 13.127V13.1283L6.38515 13.2405C6.38062 13.2274 6.36596 13.1877 6.3457 13.127Z" fill="#69C9D0"/>
<path d="M9.30455 8.53177C8.89504 8.6899 8.51472 8.9151 8.17918 9.19814C7.79882 9.52689 7.47846 9.91921 7.2324 10.3576C7.13938 10.5176 6.78753 11.1586 6.74462 12.2021C6.72036 12.7936 6.89788 13.4043 6.98238 13.6586C6.98229 13.6592 6.98229 13.6598 6.98238 13.6604C7.03569 13.8054 7.24386 14.3183 7.58478 14.7533C7.68381 14.8794 7.78998 14.9997 7.90277 15.1136C7.54138 14.8637 7.21908 14.5615 6.9464 14.217C6.60841 13.787 6.39997 13.2795 6.3456 13.1297C6.34553 13.1287 6.34553 13.1276 6.3456 13.1265V13.1247C6.26083 12.8706 6.08278 12.2597 6.10757 11.6674C6.15048 10.6239 6.50233 9.98339 6.59535 9.82293C6.84134 9.38447 7.16171 8.99213 7.54213 8.66344C7.8776 8.3803 8.25794 8.15509 8.6675 7.99707C8.92296 7.89108 9.18908 7.81289 9.46128 7.76384C9.87149 7.69224 10.2904 7.68603 10.7026 7.74545V8.23857C10.2222 8.24643 9.74765 8.34594 9.30455 8.53177Z" fill="#69C9D0"/>
<path d="M14.2323 3.5363H12.633V12.0288C12.633 12.3273 12.633 12.6152 12.5339 12.9028C12.3723 13.3618 12.0288 13.7763 11.5708 13.9602C10.8834 14.2363 10.346 14.2057 9.70499 13.7821C9.54585 13.6726 9.4059 13.5375 9.29077 13.3823C9.83693 13.6737 10.3258 13.6686 10.9314 13.4255C11.389 13.2416 11.7332 12.8271 11.8941 12.3678C11.9949 12.081 11.9936 11.7924 11.9936 11.4941V3H14.2019C14.2019 3 14.1771 3.21111 14.2323 3.5363ZM17.2566 6.07064V6.54323C16.9973 6.48148 16.746 6.39016 16.5076 6.27108C16.0456 6.04052 15.6858 5.66495 15.6154 5.58898C15.6971 5.64259 15.7818 5.69137 15.8692 5.73505C16.4308 6.01546 16.9839 6.09916 17.2566 6.07064Z" fill="#69C9D0"/>
<path d="M14.2875 19.6404C14.2873 19.7012 14.2963 19.7616 14.3142 19.8198C14.315 19.8239 14.3163 19.8279 14.3179 19.8318C14.3605 19.9693 14.446 20.0895 14.5619 20.1749C14.6777 20.2603 14.8179 20.3063 14.9619 20.3062V20.9883C14.6297 20.9883 14.392 21 14.0289 20.786C13.6174 20.5419 13.3855 20.0954 13.3855 19.6319C13.3855 19.1537 13.6451 18.6747 14.0852 18.4438C14.405 18.2765 14.6473 18.2754 14.9627 18.2754V18.9572C14.7837 18.9572 14.6121 19.0283 14.4856 19.1548C14.3591 19.2813 14.288 19.4529 14.288 19.6319L14.2875 19.6404Z" fill="#69C9D0"/>
<path d="M15.6414 19.6404C15.6414 19.7012 15.6325 19.7616 15.6148 19.8198C15.6148 19.8238 15.6124 19.8278 15.611 19.8318C15.5684 19.9692 15.4828 20.0894 15.367 20.1748C15.2511 20.2601 15.111 20.3062 14.967 20.3062V20.9883C15.2989 20.9883 15.5369 21 15.8986 20.786C16.3115 20.5419 16.5439 20.0954 16.5439 19.6319C16.5439 19.1537 16.2843 18.6747 15.8443 18.4438C15.5244 18.2765 15.2821 18.2754 14.967 18.2754V18.9572C15.1459 18.9573 15.3174 19.0284 15.4439 19.1549C15.5704 19.2814 15.6414 19.453 15.6414 19.6319V19.6404Z" fill="#EE1D52"/>
<path d="M4.52295 17.6562H7.02077L6.78994 18.3434H6.1353V20.9734H5.33219V18.3434H4.52295V17.6562ZM11.1427 17.6562V18.3434H11.9519V20.9734H12.7561V18.3434H13.4097L13.6405 17.6562H11.1427ZM7.56426 18.4394C7.64123 18.4393 7.71646 18.4164 7.78042 18.3736C7.84439 18.3308 7.89423 18.27 7.92364 18.1989C7.95304 18.1278 7.9607 18.0495 7.94563 17.974C7.93056 17.8985 7.89345 17.8292 7.83899 17.7748C7.78452 17.7205 7.71516 17.6834 7.63966 17.6685C7.56416 17.6535 7.48592 17.6613 7.41483 17.6908C7.34374 17.7203 7.28299 17.7702 7.24027 17.8342C7.19756 17.8983 7.17478 17.9735 7.17484 18.0505C7.17484 18.1016 7.18491 18.1522 7.20449 18.1994C7.22407 18.2466 7.25276 18.2895 7.28893 18.3257C7.3251 18.3618 7.36803 18.3904 7.41528 18.4099C7.46252 18.4294 7.51315 18.4394 7.56426 18.4394ZM7.17484 20.9734H7.96329V18.7144H7.17484V20.9734ZM10.7999 18.4196H9.87764L9.08279 19.2145V17.6589H8.2994L8.297 20.9734H9.08785V20.1098L9.33388 19.8857L10.1015 20.9724H10.947L9.83499 19.3832L10.7999 18.4196ZM18.3637 19.3837L19.3278 18.4196H18.4058L17.6107 19.2145V17.6589H16.8276L16.8239 20.9734H17.615V20.1098L17.8634 19.8857L18.6311 20.9724H19.4768L18.3637 19.3837ZM16.3364 19.6308C16.3364 20.3798 15.7209 20.9873 14.9618 20.9873C14.2026 20.9873 13.5872 20.3798 13.5872 19.6308C13.5872 18.8818 14.2026 18.2744 14.9618 18.2744C15.7209 18.2744 16.3364 18.8821 16.3364 19.6314V19.6308ZM15.6361 19.6308C15.6361 19.4975 15.5966 19.3671 15.5225 19.2562C15.4484 19.1453 15.3431 19.0588 15.2198 19.0078C15.0966 18.9568 14.961 18.9434 14.8302 18.9694C14.6994 18.9955 14.5792 19.0597 14.4849 19.154C14.3906 19.2483 14.3264 19.3685 14.3004 19.4993C14.2743 19.6301 14.2877 19.7657 14.3387 19.8889C14.3898 20.0121 14.4762 20.1175 14.5871 20.1916C14.698 20.2657 14.8284 20.3052 14.9618 20.3052C15.1405 20.3052 15.312 20.2342 15.4384 20.1079C15.5649 19.9815 15.636 19.8101 15.6361 19.6314V19.6308Z" fill="white"/>
</svg>
