<svg width="46" height="46" viewBox="0 0 46 46" fill="none" xmlns="http://www.w3.org/2000/svg">
<g id="Frame">
<g id="SVGRepo_iconCarrier">
<path id="Vector" d="M34 2.94092H11.4118C6.73357 2.94092 2.94116 6.73333 2.94116 11.4115V33.9997C2.94116 38.6779 6.73357 42.4703 11.4118 42.4703H34C38.6782 42.4703 42.4706 38.6779 42.4706 33.9997V11.4115C42.4706 6.73333 38.6782 2.94092 34 2.94092Z" fill="url(#paint0_radial_75_2713)"/>
<path id="Vector_2" d="M34 2.94092H11.4118C6.73357 2.94092 2.94116 6.73333 2.94116 11.4115V33.9997C2.94116 38.6779 6.73357 42.4703 11.4118 42.4703H34C38.6782 42.4703 42.4706 38.6779 42.4706 33.9997V11.4115C42.4706 6.73333 38.6782 2.94092 34 2.94092Z" fill="url(#paint1_radial_75_2713)"/>
<path id="Vector_3" d="M34 2.94092H11.4118C6.73357 2.94092 2.94116 6.73333 2.94116 11.4115V33.9997C2.94116 38.6779 6.73357 42.4703 11.4118 42.4703H34C38.6782 42.4703 42.4706 38.6779 42.4706 33.9997V11.4115C42.4706 6.73333 38.6782 2.94092 34 2.94092Z" fill="url(#paint2_radial_75_2713)"/>
<path id="Vector_4" d="M32.5882 14.9414C32.5882 16.1109 31.6401 17.059 30.4706 17.059C29.3011 17.059 28.3529 16.1109 28.3529 14.9414C28.3529 13.7718 29.3011 12.8237 30.4706 12.8237C31.6401 12.8237 32.5882 13.7718 32.5882 14.9414Z" fill="white"/>
<path id="Vector_5" fill-rule="evenodd" clip-rule="evenodd" d="M22.7058 29.7646C26.6043 29.7646 29.7646 26.6042 29.7646 22.7058C29.7646 18.8073 26.6043 15.647 22.7058 15.647C18.8074 15.647 15.647 18.8073 15.647 22.7058C15.647 26.6042 18.8074 29.7646 22.7058 29.7646ZM22.7058 26.9411C25.045 26.9411 26.9411 25.0449 26.9411 22.7058C26.9411 20.3666 25.045 18.4705 22.7058 18.4705C20.3667 18.4705 18.4705 20.3666 18.4705 22.7058C18.4705 25.0449 20.3667 26.9411 22.7058 26.9411Z" fill="white"/>
<path id="Vector_6" fill-rule="evenodd" clip-rule="evenodd" d="M8.58823 22.1413C8.58823 17.3974 8.58823 15.0253 9.51146 13.2134C10.3236 11.6196 11.6194 10.3237 13.2133 9.51162C15.0252 8.58838 17.3972 8.58838 22.1412 8.58838H23.2706C28.0145 8.58838 30.3866 8.58838 32.1984 9.51162C33.7923 10.3237 35.0882 11.6196 35.9002 13.2134C36.8235 15.0253 36.8235 17.3974 36.8235 22.1413V23.2707C36.8235 28.0147 36.8235 30.3867 35.9002 32.1986C35.0882 33.7925 33.7923 35.0883 32.1984 35.9004C30.3866 36.8237 28.0145 36.8237 23.2706 36.8237H22.1412C17.3972 36.8237 15.0252 36.8237 13.2133 35.9004C11.6194 35.0883 10.3236 33.7925 9.51146 32.1986C8.58823 30.3867 8.58823 28.0147 8.58823 23.2707V22.1413ZM22.1412 11.4119H23.2706C25.6892 11.4119 27.3332 11.4141 28.6041 11.5179C29.8421 11.6191 30.4751 11.8024 30.9167 12.0274C31.9792 12.5688 32.843 13.4327 33.3845 14.4952C33.6095 14.9368 33.7929 15.5698 33.894 16.8078C33.9977 18.0787 34 19.7227 34 22.1413V23.2707C34 25.6894 33.9977 27.3334 33.894 28.6042C33.7929 29.8422 33.6095 30.4752 33.3845 30.9168C32.843 31.9793 31.9792 32.8432 30.9167 33.3846C30.4751 33.6096 29.8421 33.793 28.6041 33.8941C27.3332 33.9979 25.6892 34.0001 23.2706 34.0001H22.1412C19.7225 34.0001 18.0785 33.9979 16.8077 33.8941C15.5697 33.793 14.9366 33.6096 14.495 33.3846C13.4325 32.8432 12.5687 31.9793 12.0272 30.9168C11.8022 30.4752 11.6189 29.8422 11.5178 28.6042C11.414 27.3334 11.4118 25.6894 11.4118 23.2707V22.1413C11.4118 19.7227 11.414 18.0787 11.5178 16.8078C11.6189 15.5698 11.8022 14.9368 12.0272 14.4952C12.5687 13.4327 13.4325 12.5688 14.495 12.0274C14.9366 11.8024 15.5697 11.6191 16.8077 11.5179C18.0785 11.4141 19.7225 11.4119 22.1412 11.4119Z" fill="white"/>
</g>
</g>
<defs>
<radialGradient id="paint0_radial_75_2713" cx="0" cy="0" r="1" gradientUnits="userSpaceOnUse" gradientTransform="translate(17.0588 32.588) rotate(-55.3758) scale(36.0277)">
<stop stop-color="#B13589"/>
<stop offset="0.79309" stop-color="#C62F94"/>
<stop offset="1" stop-color="#8A3AC8"/>
</radialGradient>
<radialGradient id="paint1_radial_75_2713" cx="0" cy="0" r="1" gradientUnits="userSpaceOnUse" gradientTransform="translate(15.647 43.8821) rotate(-65.1363) scale(31.8977)">
<stop stop-color="#E0E8B7"/>
<stop offset="0.444662" stop-color="#FB8A2E"/>
<stop offset="0.71474" stop-color="#E2425C"/>
<stop offset="1" stop-color="#E2425C" stop-opacity="0"/>
</radialGradient>
<radialGradient id="paint2_radial_75_2713" cx="0" cy="0" r="1" gradientUnits="userSpaceOnUse" gradientTransform="translate(0.823515 4.35268) rotate(-8.1301) scale(54.9048 11.7436)">
<stop offset="0.156701" stop-color="#406ADC"/>
<stop offset="0.467799" stop-color="#6A45BE"/>
<stop offset="1" stop-color="#6A45BE" stop-opacity="0"/>
</radialGradient>
</defs>
</svg>
