<svg width="40" height="40" viewBox="0 0 40 40" fill="none" xmlns="http://www.w3.org/2000/svg">
<g id="Frame" clip-path="url(#clip0_358_325)">
<g id="SVGRepo_iconCarrier">
<g id="Group">
<path id="Vector" d="M7.92334 25.2373L8.01805 25.5047C8.00593 25.4741 7.97127 25.3805 7.92334 25.2373ZM11.6715 19.1773C11.8378 17.7405 12.4026 16.936 13.467 16.1113C14.9899 14.9944 16.8922 15.6262 16.8922 15.6262V11.8781C17.3547 11.8657 17.8174 11.8943 18.2748 11.9635V16.787C18.2748 16.787 16.3731 16.1552 14.8501 17.2727C13.7863 18.0968 13.2204 18.9019 13.0546 20.3387C13.0494 21.119 13.1898 22.1389 13.836 23.0208C13.6762 22.9353 13.5134 22.8379 13.3474 22.7285C11.9238 21.7311 11.6645 20.2348 11.6715 19.1773ZM26.1297 4.9478C25.0821 3.75002 24.6859 2.5407 24.5427 1.69116H25.8606C25.8606 1.69116 25.5978 3.91866 27.5129 6.1092L27.5394 6.13865C27.0233 5.79991 26.5499 5.40006 26.1297 4.9478ZM32.4784 8.34363V13.0701C32.4784 13.0701 30.7966 13.0013 29.5521 12.671C27.8143 12.209 26.6974 11.5004 26.6974 11.5004C26.6974 11.5004 25.9258 10.995 25.8635 10.9598V20.7199C25.8635 21.2634 25.7208 22.6205 25.2859 23.7525C24.7182 25.2332 23.8421 26.2052 23.681 26.4039C23.681 26.4039 22.6155 27.7177 20.7356 28.6025C19.0412 29.4006 17.5535 29.3804 17.1088 29.4006C17.1088 29.4006 14.5371 29.5069 12.223 27.9378C11.7226 27.5919 11.2555 27.2002 10.8277 26.7677L10.8392 26.7764C13.1539 28.3455 15.7251 28.2392 15.7251 28.2392C16.1703 28.219 17.658 28.2392 19.3519 27.4411C21.23 26.5563 22.2973 25.2425 22.2973 25.2425C22.4567 25.0438 23.3368 24.0718 23.9022 22.5905C24.3359 21.4591 24.4797 20.1014 24.4797 19.5579V9.79898C24.5421 9.83479 25.3131 10.3401 25.3131 10.3401C25.3131 10.3401 26.4306 11.0493 28.1683 11.5108C29.4135 11.8411 31.0946 11.9098 31.0946 11.9098V8.20618C31.6699 8.34074 32.1602 8.37712 32.4784 8.34363Z" fill="#EE1D52"/>
</g>
<path id="Vector_2" d="M31.0951 8.20618V11.9087C31.0951 11.9087 29.414 11.8399 28.1688 11.5096C26.4311 11.0476 25.3136 10.339 25.3136 10.339C25.3136 10.339 24.5426 9.83363 24.4802 9.79783V19.5591C24.4802 20.1025 24.3376 21.4603 23.9027 22.5917C23.335 24.073 22.4589 25.045 22.2978 25.2436C22.2978 25.2436 21.2316 26.5575 19.3524 27.4423C17.6585 28.2404 16.1708 28.2202 15.7256 28.2404C15.7256 28.2404 13.1544 28.3467 10.8397 26.7775L10.8282 26.7689C10.5838 26.522 10.3538 26.2613 10.1392 25.9881C9.40055 25.0484 8.94777 23.9373 8.834 23.6202C8.8338 23.6189 8.8338 23.6175 8.834 23.6162C8.65093 23.0652 8.2663 21.7421 8.31885 20.4606C8.41183 18.1996 9.17416 16.8118 9.37571 16.4642C9.90952 15.5161 10.6038 14.6678 11.4276 13.9571C12.1546 13.3439 12.9787 12.8559 13.8659 12.5133C14.8251 12.1111 15.8522 11.8955 16.8922 11.8781V15.6262C16.8922 15.6262 14.9898 14.9967 13.4675 16.1113C12.4031 16.936 11.8383 17.7405 11.6719 19.1773C11.665 20.2348 11.9243 21.7311 13.3468 22.7291C13.5127 22.8388 13.6756 22.9362 13.8353 23.0213C14.0838 23.3584 14.3863 23.652 14.7305 23.8905C16.12 24.8082 17.2843 24.8723 18.7731 24.2763C19.7659 23.8778 20.5132 22.9797 20.8597 21.9847C21.0774 21.3633 21.0746 20.7378 21.0746 20.091V1.69116H24.5397C24.6829 2.5407 25.0791 3.75003 26.1267 4.9478C26.547 5.40006 27.0203 5.79991 27.5364 6.13865C27.6889 6.30325 28.4686 7.11697 29.4694 7.61653C29.9869 7.87475 30.5324 8.0726 31.0951 8.20618Z" fill="white"/>
<path id="Vector_3" d="M7.45483 22.4692V22.4721L7.54031 22.7153C7.53049 22.687 7.49873 22.6009 7.45483 22.4692Z" fill="#69C9D0"/>
<path id="Vector_4" d="M13.8659 12.5133C12.9787 12.8559 12.1547 13.3439 11.4277 13.9571C10.6035 14.6694 9.90944 15.5195 9.3763 16.4693C9.17475 16.8159 8.41242 18.2048 8.31944 20.4658C8.26688 21.7473 8.65151 23.0704 8.83459 23.6214C8.83439 23.6227 8.83439 23.6241 8.83459 23.6254C8.95009 23.9396 9.40113 25.0507 10.1398 25.9932C10.3543 26.2665 10.5844 26.5272 10.8288 26.7741C10.0458 26.2325 9.34744 25.5778 8.75662 24.8313C8.02432 23.8997 7.5727 22.8001 7.45489 22.4756C7.45475 22.4733 7.45475 22.4709 7.45489 22.4686V22.4646C7.27124 21.9142 6.88545 20.5905 6.93916 19.3073C7.03214 17.0463 7.79447 15.6585 7.99602 15.3108C8.529 14.3608 9.22313 13.5108 10.0474 12.7986C10.7742 12.1852 11.5983 11.6972 12.4857 11.3548C13.0392 11.1252 13.6158 10.9558 14.2055 10.8495C15.0943 10.6943 16.0021 10.6809 16.895 10.8096V11.8781C15.8541 11.8951 14.826 12.1107 13.8659 12.5133Z" fill="#69C9D0"/>
<path id="Vector_5" d="M24.5426 1.69127H21.0775V20.0917C21.0775 20.7385 21.0775 21.3622 20.8626 21.9854C20.5127 22.9799 19.7682 23.8779 18.7761 24.2764C17.2866 24.8747 16.1223 24.8083 14.7334 23.8906C14.3886 23.6532 14.0854 23.3605 13.8359 23.0243C15.0193 23.6556 16.0785 23.6446 17.3906 23.1179C18.3822 22.7194 19.1278 21.8213 19.4766 20.8263C19.6949 20.2049 19.692 19.5794 19.692 18.9332V0.529297H24.4768C24.4768 0.529297 24.4231 0.986694 24.5426 1.69127ZM31.0952 7.18234V8.20628C30.5334 8.07249 29.9889 7.87465 29.4723 7.61664C28.4715 7.11708 27.6918 6.30335 27.5394 6.13876C27.7163 6.25492 27.8999 6.36059 28.0892 6.45524C29.306 7.06279 30.5044 7.24414 31.0952 7.18234Z" fill="#69C9D0"/>
<path id="Vector_6" d="M24.6621 36.5835C24.6618 36.7152 24.6812 36.8462 24.7198 36.9721C24.7217 36.981 24.7245 36.9897 24.7279 36.9981C24.8202 37.296 25.0055 37.5566 25.2565 37.7415C25.5076 37.9265 25.8114 38.0263 26.1232 38.0261V39.504C25.4036 39.504 24.8885 39.5294 24.1019 39.0656C23.2102 38.5366 22.7078 37.5693 22.7078 36.565C22.7078 35.5289 23.2703 34.4911 24.2238 33.991C24.9168 33.6283 25.4417 33.626 26.125 33.626V35.1033C25.7373 35.1033 25.3655 35.2573 25.0914 35.5314C24.8173 35.8055 24.6632 36.1773 24.6632 36.565L24.6621 36.5835Z" fill="#69C9D0"/>
<path id="Vector_7" d="M27.5959 36.5835C27.596 36.7152 27.5765 36.8461 27.5381 36.9721C27.5381 36.9808 27.5329 36.9895 27.5301 36.9981C27.4376 37.2959 27.2523 37.5564 27.0013 37.7413C26.7502 37.9263 26.4466 38.0261 26.1348 38.0261V39.504C26.8538 39.504 27.3695 39.5294 28.1532 39.0656C29.0478 38.5366 29.5514 37.5693 29.5514 36.565C29.5514 35.5289 28.9889 34.4911 28.0354 33.991C27.3424 33.6283 26.8174 33.626 26.1348 33.626V35.1033C26.5223 35.1034 26.894 35.2575 27.168 35.5316C27.442 35.8057 27.5959 36.1774 27.5959 36.565V36.5835Z" fill="#EE1D52"/>
<path id="Vector_8" d="M3.50586 32.2854H8.91781L8.41768 33.7743H6.99928V39.4727H5.25921V33.7743H3.50586V32.2854ZM17.8486 32.2854V33.7743H19.6019V39.4727H21.3443V33.7743H22.7604L23.2605 32.2854H17.8486ZM10.0954 33.9822C10.2621 33.982 10.4251 33.9325 10.5637 33.8397C10.7023 33.747 10.8103 33.6152 10.874 33.4611C10.9377 33.307 10.9543 33.1375 10.9217 32.9739C10.889 32.8104 10.8086 32.6602 10.6906 32.5424C10.5726 32.4245 10.4223 32.3443 10.2587 32.3119C10.0951 32.2795 9.92562 32.2963 9.77159 32.3602C9.61757 32.4241 9.48595 32.5323 9.3934 32.671C9.30084 32.8097 9.2515 32.9728 9.25162 33.1396C9.25162 33.2503 9.27345 33.36 9.31587 33.4623C9.35828 33.5646 9.42045 33.6575 9.49882 33.7358C9.57718 33.814 9.67021 33.8761 9.77257 33.9183C9.87493 33.9606 9.98463 33.9823 10.0954 33.9822ZM9.25162 39.4727H10.9599V34.5782H9.25162V39.4727ZM17.1059 33.9394H15.1077L13.3855 35.6616V32.2912H11.6882L11.683 39.4727H13.3965V37.6015L13.9295 37.1158L15.5928 39.4703H17.4247L15.0153 36.0272L17.1059 33.9394ZM33.4942 36.0283L35.5831 33.9394H33.5855L31.8627 35.6616V32.2912H30.166L30.1579 39.4727H31.872V37.6015L32.4102 37.1158L34.0735 39.4703H35.9059L33.4942 36.0283ZM29.1016 36.5637C29.1016 38.1865 27.7681 39.5027 26.1233 39.5027C24.4785 39.5027 23.145 38.1865 23.145 36.5637C23.145 34.9408 24.4785 33.6247 26.1233 33.6247C27.7681 33.6247 29.1016 34.9414 29.1016 36.5648V36.5637ZM27.5844 36.5637C27.5844 36.2747 27.4988 35.9922 27.3382 35.7519C27.1777 35.5116 26.9495 35.3244 26.6825 35.2138C26.4155 35.1032 26.1217 35.0742 25.8383 35.1306C25.5548 35.187 25.2945 35.3262 25.0901 35.5305C24.8858 35.7348 24.7466 35.9952 24.6903 36.2786C24.6339 36.5621 24.6628 36.8558 24.7734 37.1228C24.884 37.3898 25.0713 37.618 25.3116 37.7786C25.5518 37.9391 25.8343 38.0248 26.1233 38.0248C26.5106 38.0248 26.8821 37.871 27.1561 37.5973C27.4301 37.3235 27.5841 36.9521 27.5844 36.5648V36.5637Z" fill="white"/>
</g>
</g>
<defs>
<clipPath id="clip0_358_325">
<rect width="39" height="39" fill="white" transform="translate(0.205811 0.529297)"/>
</clipPath>
</defs>
</svg>
