<svg width="46" height="46" viewBox="0 0 46 46" fill="none" xmlns="http://www.w3.org/2000/svg">
<g id="Frame">
<g id="SVGRepo_iconCarrier">
<path id="Vector" d="M43.0588 22.7056C43.0588 17.4637 40.9765 12.4365 37.2699 8.72988C33.5633 5.02327 28.536 2.94093 23.2941 2.94093C18.3172 2.93633 13.5217 4.80951 9.86567 8.18631C6.20959 11.5631 3.96203 16.1949 3.57195 21.1565C3.18187 26.1181 4.67798 31.0442 7.76143 34.9509C10.8449 38.8575 15.2887 41.4571 20.2052 42.2303V28.4176H15.1906V22.7056H20.208V18.3518C20.208 13.3993 23.1586 10.6605 27.6734 10.6605C29.8362 10.6605 32.0979 11.0473 32.0979 11.0473V15.9122H29.6047C27.1482 15.9122 26.3859 17.4369 26.3859 18.9983V22.7056H31.8663L30.991 28.4176H26.383V42.2303C31.032 41.4942 35.2657 39.1233 38.3226 35.5441C41.3795 31.965 43.0589 27.4125 43.0588 22.7056Z" fill="#1877F2"/>
<path id="Vector_2" d="M30.9883 28.4175L31.8636 22.7055H26.3831V18.9982C26.3831 17.4368 27.1454 15.9121 29.6019 15.9121H32.0951V11.0443C32.0951 11.0443 29.8334 10.6575 27.6706 10.6575C23.153 10.6575 20.2052 13.3963 20.2052 18.3488V22.7055H15.1906V28.4175H20.208V42.2302C22.2547 42.5523 24.3392 42.5523 26.3859 42.2302V28.4175H30.9883Z" fill="white"/>
</g>
</g>
</svg>
