<svg width="21" height="21" viewBox="0 0 21 21" fill="none" xmlns="http://www.w3.org/2000/svg">
<path d="M15.8125 0.4375H4.3125C1.93077 0.4375 0 2.36827 0 4.75V16.25C0 18.6317 1.93077 20.5625 4.3125 20.5625H15.8125C18.1942 20.5625 20.125 18.6317 20.125 16.25V4.75C20.125 2.36827 18.1942 0.4375 15.8125 0.4375Z" fill="url(#paint0_radial_745_1366)"/>
<path d="M15.8125 0.4375H4.3125C1.93077 0.4375 0 2.36827 0 4.75V16.25C0 18.6317 1.93077 20.5625 4.3125 20.5625H15.8125C18.1942 20.5625 20.125 18.6317 20.125 16.25V4.75C20.125 2.36827 18.1942 0.4375 15.8125 0.4375Z" fill="url(#paint1_radial_745_1366)"/>
<path d="M16.375 0.4375H4.875C2.49327 0.4375 0.5625 2.36827 0.5625 4.75V16.25C0.5625 18.6317 2.49327 20.5625 4.875 20.5625H16.375C18.7567 20.5625 20.6875 18.6317 20.6875 16.25V4.75C20.6875 2.36827 18.7567 0.4375 16.375 0.4375Z" fill="url(#paint2_radial_745_1366)"/>
<path d="M15.0937 6.54687C15.0937 7.14229 14.611 7.625 14.0156 7.625C13.4202 7.625 12.9375 7.14229 12.9375 6.54687C12.9375 5.95144 13.4202 5.46875 14.0156 5.46875C14.611 5.46875 15.0937 5.95144 15.0937 6.54687Z" fill="white"/>
<path fill-rule="evenodd" clip-rule="evenodd" d="M10.0625 14.0937C12.0473 14.0937 13.6562 12.4848 13.6562 10.5C13.6562 8.51524 12.0473 6.90625 10.0625 6.90625C8.07774 6.90625 6.46875 8.51524 6.46875 10.5C6.46875 12.4848 8.07774 14.0937 10.0625 14.0937ZM10.0625 12.6562C11.2534 12.6562 12.2187 11.6909 12.2187 10.5C12.2187 9.3091 11.2534 8.34375 10.0625 8.34375C8.8716 8.34375 7.90625 9.3091 7.90625 10.5C7.90625 11.6909 8.8716 12.6562 10.0625 12.6562Z" fill="white"/>
<path fill-rule="evenodd" clip-rule="evenodd" d="M2.875 10.2125C2.875 7.79728 2.875 6.58964 3.34503 5.66717C3.75849 4.85571 4.41821 4.19599 5.22967 3.78253C6.15214 3.3125 7.35978 3.3125 9.775 3.3125H10.35C12.7652 3.3125 13.9729 3.3125 14.8953 3.78253C15.7068 4.19599 16.3665 4.85571 16.7799 5.66717C17.25 6.58964 17.25 7.79728 17.25 10.2125V10.7875C17.25 13.2027 17.25 14.4104 16.7799 15.3328C16.3665 16.1443 15.7068 16.804 14.8953 17.2174C13.9729 17.6875 12.7652 17.6875 10.35 17.6875H9.775C7.35978 17.6875 6.15214 17.6875 5.22967 17.2174C4.41821 16.804 3.75849 16.1443 3.34503 15.3328C2.875 14.4104 2.875 13.2027 2.875 10.7875V10.2125ZM9.775 4.75H10.35C11.5814 4.75 12.4183 4.75112 13.0654 4.80398C13.6956 4.85547 14.0179 4.9488 14.2427 5.06335C14.7837 5.33899 15.2235 5.77881 15.4991 6.31975C15.6137 6.54457 15.7071 6.86686 15.7585 7.49713C15.8113 8.14415 15.8125 8.98114 15.8125 10.2125V10.7875C15.8125 12.0189 15.8113 12.8558 15.7585 13.5029C15.7071 14.1331 15.6137 14.4554 15.4991 14.6802C15.2235 15.2212 14.7837 15.661 14.2427 15.9366C14.0179 16.0512 13.6956 16.1446 13.0654 16.196C12.4183 16.2488 11.5814 16.25 10.35 16.25H9.775C8.54364 16.25 7.70665 16.2488 7.05963 16.196C6.42936 16.1446 6.10707 16.0512 5.88225 15.9366C5.34131 15.661 4.90149 15.2212 4.62585 14.6802C4.5113 14.4554 4.41797 14.1331 4.36648 13.5029C4.31362 12.8558 4.3125 12.0189 4.3125 10.7875V10.2125C4.3125 8.98114 4.31362 8.14415 4.36648 7.49713C4.41797 6.86686 4.5113 6.54457 4.62585 6.31975C4.90149 5.77881 5.34131 5.33899 5.88225 5.06335C6.10707 4.9488 6.42936 4.85547 7.05963 4.80398C7.70665 4.75112 8.54364 4.75 9.775 4.75Z" fill="white"/>
<defs>
<radialGradient id="paint0_radial_745_1366" cx="0" cy="0" r="1" gradientUnits="userSpaceOnUse" gradientTransform="translate(7.1875 15.5313) rotate(-55.3758) scale(18.3422)">
<stop stop-color="#B13589"/>
<stop offset="0.79309" stop-color="#C62F94"/>
<stop offset="1" stop-color="#8A3AC8"/>
</radialGradient>
<radialGradient id="paint1_radial_745_1366" cx="0" cy="0" r="1" gradientUnits="userSpaceOnUse" gradientTransform="translate(6.46875 21.2813) rotate(-65.1363) scale(16.2396)">
<stop stop-color="#E0E8B7"/>
<stop offset="0.444662" stop-color="#FB8A2E"/>
<stop offset="0.71474" stop-color="#E2425C"/>
<stop offset="1" stop-color="#E2425C" stop-opacity="0"/>
</radialGradient>
<radialGradient id="paint2_radial_745_1366" cx="0" cy="0" r="1" gradientUnits="userSpaceOnUse" gradientTransform="translate(-0.515625 1.15625) rotate(-8.1301) scale(27.9528 5.97882)">
<stop offset="0.156701" stop-color="#406ADC"/>
<stop offset="0.467799" stop-color="#6A45BE"/>
<stop offset="1" stop-color="#6A45BE" stop-opacity="0"/>
</radialGradient>
</defs>
</svg>
