<svg width="46" height="46" viewBox="0 0 46 46" fill="none" xmlns="http://www.w3.org/2000/svg">
<g id="Frame">
<g id="SVGRepo_iconCarrier">
<path id="Vector" d="M42.7647 22.7059C42.7647 11.7901 33.9158 2.94116 23 2.94116C12.0843 2.94116 3.23532 11.7901 3.23532 22.7059C3.23532 33.6216 12.0843 42.4706 23 42.4706C33.9158 42.4706 42.7647 33.6216 42.7647 22.7059Z" fill="#1275B1"/>
<path id="Vector_2" d="M18.2263 13.8005C18.2263 15.1199 17.0826 16.1895 15.672 16.1895C14.2613 16.1895 13.1177 15.1199 13.1177 13.8005C13.1177 12.4812 14.2613 11.4116 15.672 11.4116C17.0826 11.4116 18.2263 12.4812 18.2263 13.8005Z" fill="white"/>
<path id="Vector_3" d="M13.467 17.9451H17.8333V31.176H13.467V17.9451Z" fill="white"/>
<path id="Vector_4" d="M24.863 17.9453H20.4967V31.1763H24.863C24.863 31.1763 24.863 27.011 24.863 24.4067C24.863 22.8435 25.3968 21.2734 27.5264 21.2734C29.9332 21.2734 29.9188 23.3191 29.9075 24.9039C29.8928 26.9754 29.9279 29.0895 29.9279 31.1763H34.2942V24.1932C34.2572 19.7345 33.0953 17.6799 29.2729 17.6799C27.003 17.6799 25.5959 18.7105 24.863 19.6428V17.9453Z" fill="white"/>
</g>
</g>
</svg>
