<svg width="35" height="33" viewBox="0 0 35 33" fill="none" xmlns="http://www.w3.org/2000/svg">
<rect width="35" height="33" fill="#F5F5F5"/>
<g id="Desktop - 1" clip-path="url(#clip0_0_1)">
<rect width="1600" height="6760" transform="translate(-1189 -39)" fill="#101010"/>
<rect id="Rectangle 1" x="-1189" y="-39" width="1600" height="112" fill="#161515"/>
<g id="Group 2">
<g id="tobias-Flag-of-the-United-Kingdom 1">
<g clip-path="url(#clip1_0_1)">
<g id="g578">
<path id="rect124" d="M35.0007 0H0V33.0007H35.0007V0Z" fill="#000066"/>
<g id="g584">
<path id="path146" d="M0 0V3.68958L31.0876 33.0008H35.0007V29.3113L3.91308 0.000110002L0 0ZM35.0007 0V3.68947L3.91308 33.0007H0V29.3112L31.0876 0H35.0007Z" fill="white"/>
<path id="path136" d="M14.5836 0V33.0007H20.4171V0H14.5836ZM0 11.0002V22.0004H35.0007V11.0002H0Z" fill="white"/>
<path id="path141" d="M0 13.2003V19.8004H35.0007V13.2003H0ZM15.7503 0V33.0007H19.2504V0H15.7503Z" fill="#CC0000"/>
<path id="path150" d="M0 33.0007L11.6669 22.0004H14.2756L2.60872 33.0007H0ZM0 0L11.6669 11.0002H9.05818L0 2.45976L0 0ZM20.7251 11.0002L32.392 0H35.0007L23.3338 11.0002H20.7251ZM35.0007 33.0007L23.3338 22.0004H25.9425L35.0007 30.541V33.0007Z" fill="#CC0000"/>
</g>
</g>
</g>
</g>
</g>
</g>
<defs>
<clipPath id="clip0_0_1">
<rect width="1600" height="6760" fill="white" transform="translate(-1189 -39)"/>
</clipPath>
<clipPath id="clip1_0_1">
<rect width="35" height="33" rx="16.5" fill="white"/>
</clipPath>
</defs>
</svg>
