<svg width="150" height="123" viewBox="0 0 150 123" fill="none" xmlns="http://www.w3.org/2000/svg">
<path opacity="0.4" d="M41.0429 52.5957L54.8467 69.8088V101.99L36.8098 79.7249L41.0429 52.5957Z" fill="#3C66AE"/>
<path d="M0 101.99V72.2411L41.043 52.5957V101.99H0Z" fill="url(#paint0_linear_778_1328)"/>
<path opacity="0.4" d="M95.3375 27.3379L111.718 44.9043L109.141 102.156L84.8464 72.4079L95.3375 27.3379Z" fill="#3C66AE"/>
<path d="M54.8467 45.8606V101.99H95.3375V27.3379L54.8467 45.8606Z" fill="url(#paint1_linear_778_1328)"/>
<path d="M109.141 19.271L150 0V101.989L109.141 102.156V19.271Z" fill="url(#paint2_linear_778_1328)"/>
<path d="M5.76895 115.368V122.874H2.8844V115.368H0.0825195V113.039H8.58415V115.368H5.76895Z" fill="#161515"/>
<path d="M13.8705 120.222H12.3525V122.874H9.48169V113.039H13.9945C16.5893 113.039 18.0798 114.302 18.0798 116.533C18.0798 117.992 17.5001 119.058 16.451 119.661L18.4109 122.874H15.1539L13.8705 120.222ZM13.9945 117.978C14.1708 117.982 14.3461 117.949 14.51 117.883C14.674 117.817 14.8234 117.719 14.9494 117.593C15.0753 117.468 15.1754 117.318 15.2437 117.153C15.312 116.988 15.3473 116.81 15.3473 116.631C15.3473 116.452 15.312 116.274 15.2437 116.109C15.1754 115.944 15.0753 115.794 14.9494 115.669C14.8234 115.543 14.674 115.445 14.51 115.378C14.3461 115.312 14.1708 115.28 13.9945 115.284H12.3525V117.978H13.9945Z" fill="#161515"/>
<path d="M22.0971 121.303L21.5174 122.874H18.564L22.6905 113.039H25.644L29.6323 122.874H26.5686L26.0027 121.303H22.0971ZM24.0841 115.957L22.8972 119.17H25.2435L24.0841 115.957Z" fill="#161515"/>
<path d="M34.5737 113.039C37.7068 113.039 39.7769 114.989 39.7769 117.95C39.7769 120.91 37.6654 122.874 34.4773 122.874H30.3369V113.039H34.5737ZM33.2077 120.587H34.6564C35.9678 120.587 36.851 119.549 36.851 117.978C36.851 116.392 35.8989 115.34 34.5186 115.34H33.2077V120.587Z" fill="#161515"/>
<path d="M43.7248 115.284V116.827H48.2928V119.072H43.7248V120.63H48.9V122.874H40.854V113.039H48.7622V115.284H43.7248Z" fill="#161515"/>
<path d="M58.6441 122.874L57.0985 116.603L55.5253 122.874H52.5719L49.425 113.039H52.4887L54.1451 119.844L55.7596 113.053L58.5615 113.039L60.2178 119.844L61.8323 113.039H64.772L61.5976 122.874H58.6441Z" fill="#161515"/>
<path d="M65.5046 122.874V113.039H68.3754V122.874H65.5046Z" fill="#161515"/>
<path d="M74.9584 115.368V122.874H72.0738V115.368H69.272V113.039H77.7736V115.368H74.9584Z" fill="#161515"/>
<path d="M84.9786 122.874V119.212H81.5424V122.874H78.6716V113.039H81.5424V116.953H84.9786V113.039H87.8494V122.874L84.9786 122.874Z" fill="#161515"/>
<path d="M98.1318 114.695L96.476 116.687C96.2073 116.313 95.8621 116.003 95.4642 115.778C95.0663 115.552 94.6252 115.418 94.1711 115.382C93.5438 115.432 92.9581 115.72 92.5308 116.19C92.1035 116.659 91.8662 117.275 91.8662 117.915C91.8662 118.554 92.1035 119.17 92.5308 119.64C92.9581 120.109 93.5438 120.397 94.1711 120.447C95.053 120.378 95.8764 119.972 96.476 119.311L98.1318 121.106C97.6056 121.682 96.9724 122.145 96.2688 122.47C95.5652 122.796 94.8053 122.976 94.0328 123C91.0931 123 88.9265 120.84 88.9265 117.935C88.9265 115.074 91.1345 112.955 94.1297 112.955C94.8765 112.964 95.6144 113.122 96.3011 113.42C96.9878 113.719 97.6098 114.152 98.1318 114.695Z" fill="#161515"/>
<path d="M101.486 121.303L100.907 122.874H97.9531L102.08 113.039H105.033L109.021 122.874H105.958L105.392 121.303H101.486ZM103.473 115.957L102.286 119.17H104.633L103.473 115.957Z" fill="#161515"/>
<path d="M114.115 113.039C116.613 113.039 118.048 114.302 118.048 116.533C118.048 118.876 116.613 120.222 114.115 120.222H112.597V122.874H109.726V113.039H114.115ZM112.597 117.978H113.977C114.153 117.982 114.328 117.949 114.492 117.883C114.656 117.817 114.806 117.719 114.931 117.593C115.057 117.468 115.157 117.318 115.226 117.153C115.294 116.988 115.329 116.81 115.329 116.631C115.329 116.452 115.294 116.274 115.226 116.109C115.157 115.944 115.057 115.794 114.931 115.669C114.806 115.543 114.656 115.445 114.492 115.378C114.328 115.312 114.153 115.28 113.977 115.284H112.597V117.978Z" fill="#161515"/>
<path d="M119.153 122.874V113.039H122.024V122.874H119.153Z" fill="#161515"/>
<path d="M128.607 115.368V122.874H125.722V115.368H122.92V113.039H131.422V115.368H128.607Z" fill="#161515"/>
<path d="M133.866 121.303L133.286 122.874H130.333L134.459 113.039H137.413L141.401 122.874H138.337L137.771 121.303H133.866ZM135.853 115.957L134.666 119.17H137.012L135.853 115.957Z" fill="#161515"/>
<path d="M149.033 120.433V122.874H142.105V113.039H144.976V120.433H149.033Z" fill="#161515"/>
<defs>
<linearGradient id="paint0_linear_778_1328" x1="0" y1="77.2927" x2="41.0429" y2="77.2927" gradientUnits="userSpaceOnUse">
<stop stop-color="#426BB3"/>
<stop offset="1" stop-color="#0D3781"/>
</linearGradient>
<linearGradient id="paint1_linear_778_1328" x1="54.8467" y1="64.6641" x2="95.3374" y2="64.6641" gradientUnits="userSpaceOnUse">
<stop stop-color="#426BB3"/>
<stop offset="1" stop-color="#0D3781"/>
</linearGradient>
<linearGradient id="paint2_linear_778_1328" x1="109.141" y1="51.0781" x2="150" y2="51.0781" gradientUnits="userSpaceOnUse">
<stop stop-color="#426BB3"/>
<stop offset="1" stop-color="#0D3781"/>
</linearGradient>
</defs>
</svg>
