<svg width="110" height="90" viewBox="0 0 110 90" fill="none" xmlns="http://www.w3.org/2000/svg">
<g clip-path="url(#clip0_7_4)">
<path d="M30.0982 38.4845L40.221 51.0795V74.6264L26.9939 58.3352L30.0982 38.4845Z" fill="url(#paint0_linear_7_4)"/>
<path d="M0 74.6264V52.8592L30.0982 38.4845V74.6264H0Z" fill="url(#paint1_linear_7_4)"/>
<path d="M69.9142 20.0029L81.9265 32.8563L80.0367 74.7481L62.2208 52.981L69.9142 20.0029Z" fill="url(#paint2_linear_7_4)"/>
<path d="M40.2209 33.5561V74.6264H69.9142V20.0029L40.2209 33.5561Z" fill="url(#paint3_linear_7_4)"/>
<path d="M80.0366 14.1007L110 0V74.6264L80.0366 74.7481V14.1007Z" fill="url(#paint4_linear_7_4)"/>
<path d="M4.23066 84.4156V89.9077H2.11532V84.4156H0.0606079V82.7114H6.29513V84.4156H4.23066Z" fill="#F9F9F9"/>
<path d="M10.1718 87.9675H9.05854V89.9077H6.95331V82.7114H10.2627C12.1655 82.7114 13.2586 83.6352 13.2586 85.2677C13.2586 86.3353 12.8335 87.1154 12.0641 87.5568L13.5014 89.9077H11.1129L10.1718 87.9675ZM10.2627 86.3251C10.392 86.3278 10.5205 86.3043 10.6408 86.256C10.761 86.2077 10.8706 86.1356 10.9629 86.0438C11.0553 85.952 11.1287 85.8424 11.1788 85.7215C11.2289 85.6006 11.2547 85.4707 11.2547 85.3396C11.2547 85.2084 11.2289 85.0786 11.1788 84.9576C11.1287 84.8367 11.0553 84.7272 10.9629 84.6354C10.8706 84.5436 10.761 84.4714 10.6408 84.4231C10.5205 84.3748 10.392 84.3513 10.2627 84.3541H9.05854V86.3251H10.2627Z" fill="#F9F9F9"/>
<path d="M16.2045 88.7581L15.7795 89.9077H13.6136L16.6397 82.7114H18.8056L21.7304 89.9077H19.4837L19.0687 88.7581H16.2045ZM17.6617 84.8467L16.7913 87.1977H18.5119L17.6617 84.8467Z" fill="#F9F9F9"/>
<path d="M25.3541 82.7114C27.6516 82.7114 29.1698 84.1385 29.1698 86.3046C29.1698 88.4704 27.6213 89.9077 25.2833 89.9077H22.2471V82.7114H25.3541ZM24.3523 88.2343H25.4147C26.3764 88.2343 27.0241 87.4748 27.0241 86.3251C27.0241 85.1648 26.3258 84.3951 25.3136 84.3951H24.3523V88.2343Z" fill="#F9F9F9"/>
<path d="M32.0649 84.3541V85.4832H35.4147V87.1256H32.0649V88.2654H35.86V89.9077H29.9597V82.7114H35.759V84.3541H32.0649Z" fill="#F9F9F9"/>
<path d="M43.0057 89.9077L41.8723 85.3189L40.7186 89.9077H38.5527L36.2451 82.7114H38.4918L39.7064 87.6904L40.8904 82.7216L42.9451 82.7114L44.1597 87.6904L45.3437 82.7114H47.4995L45.1716 89.9077H43.0057Z" fill="#F9F9F9"/>
<path d="M48.0367 89.9077V82.7114H50.1419V89.9077H48.0367Z" fill="#F9F9F9"/>
<path d="M54.9695 84.4156V89.9077H52.8541V84.4156H50.7994V82.7114H57.034V84.4156H54.9695Z" fill="#F9F9F9"/>
<path d="M62.3176 89.9077V87.2284H59.7977V89.9077H57.6925V82.7114H59.7977V85.5755H62.3176V82.7114H64.4229V89.9078L62.3176 89.9077Z" fill="#F9F9F9"/>
<path d="M71.9633 83.9229L70.749 85.3804C70.5519 85.1069 70.2988 84.88 70.007 84.7152C69.7152 84.5504 69.3917 84.4517 69.0587 84.4258C68.5987 84.4621 68.1692 84.6731 67.8559 85.0166C67.5425 85.3601 67.3685 85.8108 67.3685 86.2788C67.3685 86.7468 67.5425 87.1976 67.8559 87.5411C68.1692 87.8846 68.5987 88.0955 69.0587 88.1318C69.7054 88.081 70.3093 87.7839 70.749 87.3002L71.9633 88.6142C71.5774 89.0352 71.113 89.3745 70.5971 89.6124C70.0811 89.8502 69.5238 89.982 68.9573 90C66.8016 90 65.2127 88.4191 65.2127 86.294C65.2127 84.2 66.8319 82.6499 69.0284 82.6499C69.5761 82.6562 70.1171 82.7718 70.6207 82.9903C71.1243 83.2087 71.5805 83.5256 71.9633 83.9229Z" fill="#F9F9F9"/>
<path d="M74.4232 88.7581L73.9981 89.9077H71.8323L74.8584 82.7114H77.0243L79.949 89.9077H77.7023L77.2874 88.7581H74.4232ZM75.8804 84.8467L75.01 87.1977H76.7306L75.8804 84.8467Z" fill="#F9F9F9"/>
<path d="M83.6842 82.7114C85.516 82.7114 86.5686 83.6352 86.5686 85.2677C86.5686 86.9821 85.516 87.9675 83.6842 87.9675H82.571V89.9077H80.4658V82.7114H83.6842ZM82.571 86.3251H83.5829C83.7121 86.3278 83.8406 86.3043 83.9609 86.256C84.0811 86.2077 84.1907 86.1356 84.2831 86.0438C84.3754 85.952 84.4488 85.8424 84.4989 85.7215C84.549 85.6006 84.5748 85.4707 84.5748 85.3396C84.5748 85.2084 84.549 85.0786 84.4989 84.9576C84.4488 84.8367 84.3754 84.7272 84.2831 84.6354C84.1907 84.5436 84.0811 84.4714 83.9609 84.4231C83.8406 84.3748 83.7121 84.3513 83.5829 84.3541H82.571V86.3251Z" fill="#F9F9F9"/>
<path d="M87.379 89.9077V82.7114H89.4842V89.9077H87.379Z" fill="#F9F9F9"/>
<path d="M94.3118 84.4156V89.9077H92.1964V84.4156H90.1417V82.7114H96.3762V84.4156H94.3118Z" fill="#F9F9F9"/>
<path d="M98.1682 88.7581L97.7431 89.9077H95.5773L98.6034 82.7114H100.769L103.694 89.9077H101.447L101.032 88.7581H98.1682ZM99.6254 84.8467L98.755 87.1977H100.476L99.6254 84.8467Z" fill="#F9F9F9"/>
<path d="M109.291 88.1215V89.9077H104.211V82.7114H106.316V88.1215H109.291Z" fill="#F9F9F9"/>
</g>
<defs>
<linearGradient id="paint0_linear_7_4" x1="26.9939" y1="56.5555" x2="40.2208" y2="56.5555" gradientUnits="userSpaceOnUse">
<stop stop-color="#1A1D1F" stop-opacity="0.2"/>
<stop offset="0.09971" stop-color="#616364" stop-opacity="0.45411"/>
<stop offset="0.19911" stop-color="#A1A2A3" stop-opacity="0.68394"/>
<stop offset="0.28139" stop-color="#CFCFD0" stop-opacity="0.84994"/>
<stop offset="0.34348" stop-color="#EBEBEC" stop-opacity="0.95224"/>
<stop offset="0.37817" stop-color="#F6F6F6" stop-opacity="0.99058"/>
<stop offset="1" stop-color="#F9F9F9"/>
</linearGradient>
<linearGradient id="paint1_linear_7_4" x1="0" y1="56.5555" x2="30.0982" y2="56.5555" gradientUnits="userSpaceOnUse">
<stop stop-color="#FFD700"/>
<stop offset="1" stop-color="#C89900"/>
</linearGradient>
<linearGradient id="paint2_linear_7_4" x1="62.2209" y1="47.3755" x2="81.9264" y2="47.3755" gradientUnits="userSpaceOnUse">
<stop stop-color="#1A1D1F" stop-opacity="0.2"/>
<stop offset="0.03088" stop-color="#2B2D2F" stop-opacity="0.25981"/>
<stop offset="0.17263" stop-color="#737576" stop-opacity="0.51941"/>
<stop offset="0.29872" stop-color="#ADAEAE" stop-opacity="0.72566"/>
<stop offset="0.40445" stop-color="#D6D6D7" stop-opacity="0.87443"/>
<stop offset="0.48582" stop-color="#F0F0F0" stop-opacity="0.96595"/>
<stop offset="0.53299" stop-color="#F9F9F9"/>
</linearGradient>
<linearGradient id="paint3_linear_7_4" x1="40.2208" y1="47.3147" x2="69.9141" y2="47.3147" gradientUnits="userSpaceOnUse">
<stop stop-color="#FFD700"/>
<stop offset="1" stop-color="#C89900"/>
</linearGradient>
<linearGradient id="paint4_linear_7_4" x1="94.7512" y1="8.62228" x2="95.3709" y2="73.4333" gradientUnits="userSpaceOnUse">
<stop stop-color="#FFD700"/>
<stop offset="1" stop-color="#C89900"/>
</linearGradient>
<clipPath id="clip0_7_4">
<rect width="110" height="90" fill="white"/>
</clipPath>
</defs>
</svg>
