<svg width="30" height="30" viewBox="0 0 30 30" fill="none" xmlns="http://www.w3.org/2000/svg">
<g id="Frame" clip-path="url(#clip0_109_80)">
<path id="Vector" d="M15 0C6.72089 0 0 6.73662 0 15C0 23.2634 6.73663 30 15 30C23.2634 30 30 23.2634 30 15C30 6.73662 23.2634 0 15 0ZM15 27.6548C8.02729 27.6548 2.36097 21.9885 2.36097 15.0157C2.36097 8.04302 8.02729 2.37671 15 2.37671C21.9727 2.37671 27.639 8.04302 27.639 15.0157C27.639 21.9885 21.9727 27.6548 15 27.6548Z" fill="white"/>
<path id="Vector_2" d="M10.7809 8.95703H9.75781V11.318H10.7809V13.8206H9.75781V16.1816H10.7809V18.6842H9.75781V21.0452H10.7809H19.2174H20.2405V18.6842H19.2174V16.1816H20.2405V13.8206H19.2174V11.318H20.2405V8.95703H19.2174H10.7809ZM16.8565 18.6842H13.1419V16.1816H16.8565V18.6842ZM16.8565 13.8206H13.1419V11.318H16.8565V13.8206Z" fill="white"/>
</g>
<defs>
<clipPath id="clip0_109_80">
<rect width="30" height="30" fill="white"/>
</clipPath>
</defs>
</svg>
