<svg width="30" height="30" viewBox="0 0 30 30" fill="none" xmlns="http://www.w3.org/2000/svg">
<g id="Frame" clip-path="url(#clip0_109_75)">
<path id="Vector" d="M15 0C6.72088 0 0 6.73662 0 15C0 23.2634 6.73662 30 15 30C23.2634 30 30 23.2634 30 15C30 6.73662 23.2791 0 15 0ZM15 27.6548C8.02728 27.6548 2.36097 21.9885 2.36097 15.0157C2.36097 8.04302 8.02728 2.37671 15 2.37671C21.9727 2.37671 27.639 8.04302 27.639 15.0157C27.639 21.9885 21.9727 27.6548 15 27.6548Z" fill="white"/>
<path id="Vector_2" d="M17.5678 14.7011C18.402 14.3076 18.9844 13.4734 18.9844 12.4818C18.9844 11.0495 17.5993 9.88475 16.167 9.85327V8.2793H15.0652V9.85327H14.0736V8.2793H12.9718V9.85327H12.72H11.9487H10.4062V11.38H11.9487V14.6382V14.9372V18.6361H10.4062V20.1628H11.9487H12.72H12.9718V21.7368H14.0736V20.1628H15.0652V21.7368H16.167V20.1628C17.741 20.1471 19.614 18.8722 19.614 17.2982C19.614 16.039 18.7326 14.9844 17.5678 14.7011ZM13.9949 11.3643H15.7578C16.4503 11.3643 17.0169 11.9309 17.0169 12.6235C17.0169 13.316 16.4503 13.8827 15.7578 13.8827H13.9949V11.3643ZM16.0568 18.6203H13.9949V15.677H16.0568C16.8753 15.677 17.5364 16.3381 17.5364 17.1565C17.5364 17.9593 16.8753 18.6203 16.0568 18.6203Z" fill="white"/>
</g>
<defs>
<clipPath id="clip0_109_75">
<rect width="30" height="30" fill="white"/>
</clipPath>
</defs>
</svg>
