<svg width="30" height="30" viewBox="0 0 30 30" fill="none" xmlns="http://www.w3.org/2000/svg">
<g id="Frame" clip-path="url(#clip0_109_64)">
<path id="Vector" d="M7.98047 19.4555H9.75906V15.7094H12.7496V14.3558H9.75906V11.9633H13.5051V10.5625H7.98047V19.4555Z" fill="white"/>
<path id="Vector_2" d="M21.8775 10.5625H19.8628L18.0999 13.5373L16.1482 10.5625H14.0391L16.9037 14.9067L14.1178 19.4555H16.1482L17.911 16.4177L19.9257 19.4555H22.0191L19.1073 15.0326L21.8775 10.5625Z" fill="white"/>
<path id="Vector_3" d="M15 0C6.73662 0 0 6.73662 0 15C0 23.2634 6.73662 30 15 30C23.2634 30 30 23.2634 30 15C30 6.73662 23.2791 0 15 0ZM15 27.6548C8.02728 27.6548 2.36097 21.9885 2.36097 15.0157C2.36097 8.04302 8.02728 2.36097 15 2.36097C21.9727 2.36097 27.639 8.02728 27.639 15C27.639 21.9727 21.9727 27.6548 15 27.6548Z" fill="white"/>
</g>
<defs>
<clipPath id="clip0_109_64">
<rect width="30" height="30" fill="white"/>
</clipPath>
</defs>
</svg>
