<svg width="30" height="30" viewBox="0 0 30 30" fill="none" xmlns="http://www.w3.org/2000/svg">
<g id="Frame" clip-path="url(#clip0_109_85)">
<path id="Vector" d="M15 0C6.73662 0 0 6.73662 0 15C0 23.2634 6.73662 30 15 30C23.2634 30 30 23.2634 30 15C30 6.73662 23.2791 0 15 0ZM15 27.639C8.02728 27.639 2.36097 21.9727 2.36097 15C2.36097 8.02728 8.02728 2.36097 15 2.36097C21.9727 2.36097 27.639 8.02728 27.639 15C27.639 21.9727 21.9727 27.639 15 27.639Z" fill="white"/>
<path id="Vector_2" d="M19.4052 12.2142L20.3024 10.7977L19.2006 9.69588L17.784 10.593C17.2804 10.2782 16.7295 10.0422 16.1471 9.91623L15.7851 8.2793H14.2269L13.8648 9.91623C13.2667 10.0422 12.7158 10.2782 12.2122 10.593L10.7956 9.69588L9.69381 10.7977L10.591 12.2142C10.2762 12.7179 10.0401 13.2688 9.91417 13.8512L8.29297 14.2289V15.7872L9.91417 16.1492C10.0401 16.7473 10.2762 17.2982 10.591 17.7861L9.69381 19.2027L10.7956 20.3045L12.2122 19.4073C12.7158 19.7221 13.2667 19.9582 13.8491 20.0841L14.2111 21.7211H15.7694L16.1314 20.0841C16.7295 19.9582 17.2804 19.7221 17.7683 19.4073L19.1849 20.3045L20.2867 19.2027L19.3895 17.7861C19.7043 17.2824 19.9404 16.7316 20.0663 16.1492L21.6875 15.7872V14.2289L20.0978 13.8512C19.9561 13.2688 19.72 12.7179 19.4052 12.2142ZM14.9981 18.7777C12.9205 18.7777 11.2206 17.0936 11.2206 15.0002C11.2206 12.9068 12.9047 11.2226 14.9981 11.2226C17.0758 11.2226 18.7757 12.9068 18.7757 15.0002C18.7757 17.0936 17.0915 18.7777 14.9981 18.7777Z" fill="white"/>
</g>
<defs>
<clipPath id="clip0_109_85">
<rect width="30" height="30" fill="white"/>
</clipPath>
</defs>
</svg>
